<svg width="237" height="30" viewBox="0 0 237 30" fill="none" xmlns="http://www.w3.org/2000/svg">
<g clip-path="url(#clip0_1_125)">
<path d="M76.4488 23.1479H72.2759V14.8345H63.2944V23.1479H59.1215V3.25362H63.2944V11.2775H72.2759V3.25362H76.4488V23.1479Z" fill="#FE6438"/>
<path d="M87.4753 10.6847C85.6099 10.6847 84.2972 11.9806 84.1591 13.9521H90.6534C90.5704 11.9393 89.3545 10.6847 87.4753 10.6847ZM90.7363 18.8189H94.4808C93.8729 21.6865 91.2475 23.4788 87.5168 23.4788C82.874 23.4788 80.1381 20.556 80.1381 15.6203C80.1381 10.6709 82.9293 7.61024 87.4615 7.61024C91.9522 7.61024 94.6052 10.4641 94.6052 15.2895V16.5165H84.1453V16.7233C84.2005 18.9843 85.527 20.3906 87.6273 20.3906C89.2163 20.3906 90.3079 19.8253 90.7363 18.8189Z" fill="#FE6438"/>
<path d="M98.0458 23.1479V2.13689H102.067V23.1479H98.0458Z" fill="#FE6438"/>
<path d="M106.281 23.1479V7.94112H110.302V23.1479H106.281ZM108.298 5.81796C106.848 5.81796 105.922 4.97696 105.922 3.7913C105.922 2.59185 106.848 1.76465 108.298 1.76465C109.736 1.76465 110.675 2.59185 110.675 3.7913C110.675 4.97696 109.736 5.81796 108.298 5.81796Z" fill="#FE6438"/>
<path d="M127.864 13.3042H124.106C123.829 11.8566 122.793 10.9053 121.08 10.9053C118.91 10.9053 117.694 12.5183 117.694 15.5101C117.694 18.5431 118.924 20.1838 121.08 20.1838C122.724 20.1838 123.802 19.3841 124.106 17.8814H127.864C127.533 21.2867 125.045 23.4788 121.08 23.4788C116.327 23.4788 113.632 20.6112 113.632 15.5101C113.632 10.4641 116.313 7.61024 121.08 7.61024C125.115 7.61024 127.533 9.84369 127.864 13.3042Z" fill="#FE6438"/>
<path d="M137.771 23.4788C133.087 23.4788 130.269 20.5146 130.269 15.5376C130.269 10.6158 133.129 7.61024 137.771 7.61024C142.414 7.61024 145.274 10.602 145.274 15.5376C145.274 20.5146 142.456 23.4788 137.771 23.4788ZM137.771 20.1976C139.913 20.1976 141.143 18.488 141.143 15.5376C141.143 12.6148 139.899 10.8915 137.771 10.8915C135.63 10.8915 134.4 12.6148 134.4 15.5376C134.4 18.5018 135.616 20.1976 137.771 20.1976Z" fill="#FE6438"/>
<path d="M148.563 23.1479V7.94112H152.46V10.3814H152.708C153.413 8.67182 154.961 7.61024 157.213 7.61024C160.598 7.61024 162.422 9.67825 162.422 13.318V23.1479H158.401V14.2692C158.401 12.1737 157.503 11.0707 155.596 11.0707C153.731 11.0707 152.584 12.3805 152.584 14.3795V23.1479H148.563Z" fill="#FE6438"/>
<path d="M185.401 23.4707L183.397 17.7768H175.466L173.462 23.4707H170.851L178.202 3.57642H180.661L188.012 23.4707H185.401ZM179.321 6.78873L176.198 15.6674H182.665L179.542 6.78873H179.321Z" fill="#212121"/>
<path d="M198.459 8.34664C202.258 8.34664 204.718 11.3659 204.718 16.0397C204.718 20.6858 202.245 23.7327 198.459 23.7327C196.331 23.7327 194.617 22.809 193.802 21.2373H193.581V28.434H191.204V8.60859H193.47V11.0902H193.691C194.645 9.38064 196.427 8.34664 198.459 8.34664ZM197.892 21.5957C200.628 21.5957 202.258 19.5139 202.258 16.0397C202.258 12.5654 200.628 10.4836 197.906 10.4836C195.211 10.4836 193.512 12.6205 193.512 16.0397C193.512 19.445 195.211 21.5957 197.892 21.5957Z" fill="#212121"/>
<path d="M215.703 8.34664C219.503 8.34664 221.962 11.3659 221.962 16.0397C221.962 20.6858 219.489 23.7327 215.703 23.7327C213.575 23.7327 211.862 22.809 211.046 21.2373H210.825V28.434H208.449V8.60859H210.715V11.0902H210.936C211.889 9.38064 213.672 8.34664 215.703 8.34664ZM215.136 21.5957C217.872 21.5957 219.503 19.5139 219.503 16.0397C219.503 12.5654 217.872 10.4836 215.15 10.4836C212.456 10.4836 210.756 12.6205 210.756 16.0397C210.756 19.445 212.456 21.5957 215.136 21.5957Z" fill="#212121"/>
<path d="M225.348 12.6757C225.348 10.2078 227.738 8.34664 230.902 8.34664C234.025 8.34664 236.194 9.89075 236.512 12.331H234.163C233.845 11.1453 232.685 10.3595 230.888 10.3595C229.12 10.3595 227.738 11.2556 227.738 12.5792C227.738 13.5994 228.567 14.2336 230.322 14.661L232.616 15.2124C235.421 15.888 236.775 17.1012 236.775 19.2382C236.775 21.899 234.191 23.7327 230.806 23.7327C227.489 23.7327 225.209 22.1472 224.947 19.6794H227.393C227.793 20.934 228.982 21.7336 230.888 21.7336C232.892 21.7336 234.329 20.7823 234.329 19.4174C234.329 18.3972 233.555 17.7078 231.966 17.3218L229.41 16.7014C226.619 16.0259 225.348 14.8264 225.348 12.6757Z" fill="#212121"/>
<path d="M39.4137 15.0655C39.4137 22.6214 33.2743 28.7487 25.6987 28.7487C18.1231 28.7487 11.9838 22.6214 11.9838 15.0655C11.9838 7.50954 18.1231 1.38232 25.6987 1.38232C33.2743 1.38232 39.4137 7.50954 39.4137 15.0655Z" fill="url(#paint0_linear_1_125)" stroke="url(#paint1_linear_1_125)"/>
<path d="M8.44293 19.1986C8.44293 20.3532 7.15195 21.0379 6.1961 20.3903L0.919919 16.8157C0.34456 16.4259 -6.10352e-05 15.7762 -6.10352e-05 15.0812C-6.10352e-05 14.3883 0.34251 13.7403 0.915051 13.35L6.13202 9.79412C7.11335 9.12524 8.44293 9.82806 8.44293 11.0157C8.44293 11.5196 8.18626 11.9888 7.76192 12.2605L7.10873 12.6789C5.32979 13.8182 5.32979 16.4173 7.10873 17.5567L7.77982 17.9865C8.193 18.2511 8.44293 18.708 8.44293 19.1986Z" fill="url(#paint2_linear_1_125)"/>
<path d="M45.2636 20.3387C44.2831 21.007 42.9546 20.3048 42.9546 19.1181C42.9546 18.613 43.2127 18.143 43.6389 17.8719L44.2947 17.4546C46.0816 16.3179 46.0816 13.7096 44.2947 12.5729L43.6209 12.1442C43.2059 11.8803 42.9546 11.4225 42.9546 10.9307C42.9546 9.7771 44.2445 9.09292 45.1996 9.73997L50.4776 13.3158C51.053 13.7056 51.3976 14.3553 51.3976 15.0503C51.3976 15.7432 51.055 16.3913 50.4825 16.7815L45.2636 20.3387Z" fill="url(#paint3_linear_1_125)"/>
</g>
<defs>
<linearGradient id="paint0_linear_1_125" x1="15.8178" y1="3.84627" x2="32.8806" y2="28.0906" gradientUnits="userSpaceOnUse">
<stop stop-color="#FFC572"/>
<stop offset="0.6875" stop-color="#E80F0F"/>
<stop offset="1" stop-color="#AB3EF5"/>
</linearGradient>
<linearGradient id="paint1_linear_1_125" x1="17.1453" y1="0.882324" x2="32.0441" y2="29.2761" gradientUnits="userSpaceOnUse">
<stop stop-color="white"/>
<stop offset="1" stop-color="white" stop-opacity="0"/>
</linearGradient>
<linearGradient id="paint2_linear_1_125" x1="1.28704" y1="9.64981" x2="9.95877" y2="17.2299" gradientUnits="userSpaceOnUse">
<stop stop-color="#FFC572"/>
<stop offset="0.6875" stop-color="#E80F0F"/>
<stop offset="1" stop-color="#AB3EF5"/>
</linearGradient>
<linearGradient id="paint3_linear_1_125" x1="44.2417" y1="9.64981" x2="52.9134" y2="17.2299" gradientUnits="userSpaceOnUse">
<stop stop-color="#FFC572"/>
<stop offset="0.6875" stop-color="#E80F0F"/>
<stop offset="1" stop-color="#AB3EF5"/>
</linearGradient>
<clipPath id="clip0_1_125">
<rect width="237" height="30" fill="white"/>
</clipPath>
</defs>
</svg>
